<?xml version="1.0" encoding="UTF-8"?>
<svg width="27px" height="27px" viewBox="0 0 27 27" version="1.1" xmlns="http://www.w3.org/2000/svg" xmlns:xlink="http://www.w3.org/1999/xlink">
    <!-- Generator: Sketch 46.2 (44496) - http://www.bohemiancoding.com/sketch -->
    <title>002-facebook-logo-button</title>
    <desc>Created with Sketch.</desc>
    <defs></defs>
    <g id="Symbols" stroke="none" stroke-width="1" fill="none" fill-rule="evenodd">
        <g id="facebook" fill-rule="nonzero" fill="#FFFFFF">
            <g id="002-facebook-logo-button">
                <path d="M13.5,0 C6.05613067,0 0,6.05613067 0,13.5 C0,20.9433255 6.05613067,27 13.5,27 C20.9433255,27 27,20.9433255 27,13.5 C27,6.05613067 20.9444131,0 13.5,0 Z M16.857327,13.9752679 L14.6609804,13.9752679 C14.6609804,17.4843108 14.6609804,21.803593 14.6609804,21.803593 L11.4064287,21.803593 C11.4064287,21.803593 11.4064287,17.5261822 11.4064287,13.9752679 L9.85936115,13.9752679 L9.85936115,11.2084911 L11.4064287,11.2084911 L11.4064287,9.41889551 C11.4064287,8.13719488 12.0154677,6.13443567 14.6908886,6.13443567 L17.1025739,6.14368001 L17.1025739,8.82943285 C17.1025739,8.82943285 15.637074,8.82943285 15.3521308,8.82943285 C15.0671876,8.82943285 14.662068,8.97190446 14.662068,9.5831185 L14.662068,11.2090349 L17.1417264,11.2090349 L16.857327,13.9752679 Z" id="Shape"></path>
            </g>
        </g>
    </g>
</svg>