<?xml version="1.0" encoding="UTF-8"?>
<svg width="27px" height="27px" viewBox="0 0 27 27" version="1.1" xmlns="http://www.w3.org/2000/svg" xmlns:xlink="http://www.w3.org/1999/xlink">
    <!-- Generator: Sketch 46.2 (44496) - http://www.bohemiancoding.com/sketch -->
    <title>001-instagram</title>
    <desc>Created with Sketch.</desc>
    <defs></defs>
    <g id="Symbols" stroke="none" stroke-width="1" fill="none" fill-rule="evenodd">
        <g id="instagram" fill-rule="nonzero" fill="#FFFFFF">
            <g id="001-instagram">
                <path d="M17.6164153,7 L9.38327691,7 C8.06915083,7 7,8.06915083 7,9.38327691 L7,17.6164153 C7,18.9305414 8.06915083,20 9.38327691,20 L17.6164153,20 C18.9305414,20 20,18.9308492 20,17.6164153 L20,9.38327691 C20,8.06915083 18.9308492,7 17.6164153,7 Z M13.4998461,17.779527 C11.1402666,17.779527 9.220473,15.8597334 9.220473,13.4998461 C9.220473,11.1402666 11.1402666,9.220473 13.4998461,9.220473 C15.8597334,9.220473 17.779527,11.1402666 17.779527,13.4998461 C17.779527,15.8594257 15.8594257,17.779527 13.4998461,17.779527 Z M17.9170948,10.1052769 C17.3585142,10.1052769 16.9042636,9.65102625 16.9042636,9.09275349 C16.9042636,8.53448072 17.3585142,8.08023011 17.9170948,8.08023011 C18.4753675,8.08023011 18.9296181,8.53448072 18.9296181,9.09275349 C18.9296181,9.65102625 18.4753675,10.1052769 17.9170948,10.1052769 Z" id="Shape"></path>
                <path d="M13.5001557,11 C12.1221122,11 11,12.1214895 11,13.499533 C11,14.8781991 12.1221122,16 13.5001557,16 C14.8788218,16 16,14.8781991 16,13.499533 C16,12.1218009 14.8785105,11 13.5001557,11 Z" id="Shape"></path>
                <path d="M13.5,0 C6.04445286,0 0,6.04445286 0,13.5 C0,20.9555471 6.04445286,27 13.5,27 C20.9555471,27 27,20.9555471 27,13.5 C27,6.04445286 20.9555471,0 13.5,0 Z M21.6206355,17.5600169 C21.6206355,19.8193921 19.7829943,21.6570334 17.5236191,21.6570334 L9.47638094,21.6570334 C7.21730654,21.6570334 5.37936451,19.8193921 5.37936451,17.5600169 L5.37936451,9.51277881 C5.37936451,7.25370441 7.21730654,5.41576238 9.47638094,5.41576238 L17.5236191,5.41576238 C19.7829943,5.41576238 21.6206355,7.25370441 21.6206355,9.51277881 L21.6206355,17.5600169 Z" id="Shape"></path>
            </g>
        </g>
    </g>
</svg>