<?xml version="1.0" encoding="UTF-8"?>
<svg width="21px" height="20px" viewBox="0 0 21 20" version="1.1" xmlns="http://www.w3.org/2000/svg" xmlns:xlink="http://www.w3.org/1999/xlink">
    <!-- Generator: Sketch 46.2 (44496) - http://www.bohemiancoding.com/sketch -->
    <title>star copy</title>
    <desc>Created with Sketch.</desc>
    <defs></defs>
    <g id="Symbols" stroke="none" stroke-width="1" fill="none" fill-rule="evenodd">
        <g id="star--copy" fill-rule="nonzero" fill="#000000">
            <g id="star-copy">
                <path d="M20.9711864,7.55803955 C20.9022241,7.34737747 20.7211979,7.19690456 20.5013805,7.16251075 L13.9499581,6.2338779 L11.001818,0.32244196 C10.9026847,0.124677558 10.7001078,0 10.4802903,0 L10.4802903,0 C10.2604729,0 10.057896,0.124677558 9.95876263,0.326741187 L7.04941388,6.25537403 L0.497991507,7.22699914 C0.278174046,7.26139295 0.0971479011,7.41186586 0.0281855603,7.62252794 C-0.0407767805,7.83319003 0.0195652677,8.06534824 0.179040681,8.21582115 L4.93313205,12.8116939 L3.83404474,19.3207223 C3.79525343,19.5399828 3.8857665,19.7592433 4.06679264,19.8882201 C4.16592601,19.961307 4.2866101,20 4.4072942,20 C4.50211742,20 4.59263049,19.9785039 4.67883342,19.9312124 L10.5277019,16.8400688 L16.3938111,19.8968186 C16.480014,19.9398108 16.5705271,19.961307 16.6610401,19.961307 L16.6610401,19.961307 C16.979991,19.961307 17.2429099,19.6990542 17.2429099,19.3809114 C17.2429099,19.3336199 17.2385997,19.2906277 17.2256693,19.2476354 L16.0921008,12.7773001 L20.8160212,8.15563199 C20.9841169,8.00085985 21.0401488,7.76870163 20.9711864,7.55803955 Z M15.066286,12.1625107 C14.9283613,12.2957868 14.8680193,12.4892519 14.9025004,12.6784179 L15.8895239,18.3233018 L10.794931,15.6706793 C10.6268353,15.5803955 10.4242584,15.5846948 10.2518526,15.6706793 L5.17450024,18.3533964 L6.12704257,12.699914 C6.1572136,12.5107481 6.09687155,12.3215821 5.95894687,12.1883061 L1.83844701,8.19862425 L7.52352997,7.35597592 C7.71317641,7.32588134 7.87696197,7.20980224 7.95885475,7.03783319 L10.4846005,1.8916595 L13.0448274,7.02493551 C13.1310303,7.19690456 13.2948159,7.31298366 13.4844623,7.34307825 L19.1738554,8.15133276 L15.066286,12.1625107 Z" id="Shape"></path>
            </g>
        </g>
    </g>
</svg>